<?xml version="1.0" standalone="no"?>
<!DOCTYPE svg PUBLIC "-//W3C//DTD SVG 20010904//EN"
 "http://www.w3.org/TR/2001/REC-SVG-20010904/DTD/svg10.dtd">
<svg version="1.0" xmlns="http://www.w3.org/2000/svg"
 width="339.000000pt" height="735.000000pt" viewBox="0 0 339.000000 735.000000"
 preserveAspectRatio="xMidYMid meet">

<g transform="translate(0.000000,735.000000) scale(0.100000,-0.100000)"
fill="#000000" stroke="none">
<path d="M1395 4436 c-16 -8 -156 -141 -310 -297 l-280 -282 0 -54 0 -54 245
-243 c219 -217 252 -245 298 -260 62 -21 82 -39 82 -72 0 -13 5 -24 10 -24 16
0 12 50 -5 66 -19 20 -19 33 0 41 18 6 55 -23 55 -45 0 -12 3 -12 16 -2 13 12
12 16 -10 37 -41 38 -33 70 10 38 34 -26 37 -16 5 20 -20 24 -31 46 -31 67 0
26 -21 52 -142 175 -194 196 -238 243 -238 260 0 8 100 115 221 237 122 123
225 230 230 237 12 19 11 73 -2 101 -24 52 -100 79 -154 54z"/>
<path d="M1951 4420 c-1 -9 6 -26 15 -38 17 -25 11 -42 -15 -42 -11 0 -21 -9
-24 -21 l-6 -21 -38 22 -38 23 33 -33 c21 -22 32 -42 32 -62 0 -44 20 -69 210
-261 96 -97 177 -182 178 -187 2 -6 -97 -111 -220 -234 -124 -123 -230 -237
-237 -254 -26 -61 5 -126 71 -151 61 -23 75 -12 373 285 156 156 289 293 296
305 6 13 8 39 4 64 -5 40 -22 59 -246 281 -132 131 -249 244 -262 251 -12 7
-34 12 -48 13 -25 0 -61 30 -72 60 -5 13 -6 13 -6 0z"/>
<path d="M1896 4392 c-2 -4 -1 -14 5 -22 7 -12 9 -10 9 8 0 23 -5 28 -14 14z"/>
<path d="M1787 3812 c-86 -87 -160 -155 -164 -151 -5 3 -29 14 -56 24 -26 10
-46 20 -44 22 3 2 27 -5 56 -16 l51 -21 0 23 c0 17 2 19 10 7 7 -12 36 12 139
115 72 71 128 131 126 133 -2 2 -29 -16 -62 -41 -203 -154 -208 -157 -261
-157 -55 0 -119 -24 -85 -33 12 -3 8 -5 -10 -6 -34 -1 -32 22 1 27 45 7 19 20
-78 39 -55 11 -100 16 -100 12 0 -5 25 -25 55 -46 30 -21 106 -74 168 -118
176 -126 186 -131 166 -92 -8 17 -6 16 13 -6 l23 -28 87 178 c48 98 97 201
109 228 12 28 24 53 26 58 16 30 -35 -15 -170 -151z m-117 -208 c12 -19 21
-37 18 -39 -2 -2 -14 14 -26 36 -28 49 -22 52 8 3z"/>
<path d="M1163 2843 c-20 -7 -18 -177 2 -193 8 -7 22 -10 30 -6 13 5 15 23 13
103 -3 100 -9 112 -45 96z"/>
<path d="M1250 2747 c0 -79 3 -99 16 -104 23 -9 39 13 39 54 0 51 15 49 50 -5
23 -35 36 -47 55 -47 25 1 25 2 28 97 2 78 0 97 -13 101 -30 12 -47 -4 -42
-38 10 -59 -9 -62 -43 -7 -27 44 -35 51 -61 49 l-29 -2 0 -98z"/>
<path d="M1510 2837 c-19 -9 -26 -22 -28 -49 -3 -34 -1 -37 43 -53 32 -13 45
-23 42 -34 -2 -9 -10 -14 -18 -12 -47 13 -69 13 -69 -2 0 -21 23 -37 63 -44
41 -6 75 10 87 43 14 35 4 50 -46 74 -57 28 -56 41 1 33 50 -6 58 4 25 37 -23
23 -63 26 -100 7z"/>
<path d="M1678 2843 c-26 -7 -22 -30 7 -37 23 -6 24 -11 27 -84 3 -75 4 -77
28 -77 24 0 25 2 28 78 3 75 6 82 38 78 13 -1 28 28 19 37 -7 7 -126 11 -147
5z"/>
<path d="M1872 2842 c-9 -6 -12 -34 -10 -103 3 -88 4 -94 25 -97 21 -3 22 1
25 90 2 51 2 99 0 106 -5 14 -21 15 -40 4z"/>
<path d="M1957 2843 c-4 -3 -7 -45 -7 -93 0 -89 8 -110 42 -110 14 0 18 8 18
34 0 48 14 52 41 14 28 -41 38 -48 67 -48 29 0 28 9 -8 56 -16 21 -30 45 -30
53 0 7 14 30 30 51 20 25 27 41 20 45 -22 14 -58 -6 -80 -42 -17 -29 -23 -34
-31 -22 -5 8 -9 26 -9 42 0 22 -5 27 -23 27 -13 0 -27 -3 -30 -7z"/>
<path d="M2188 2843 c-2 -5 -5 -49 -7 -99 -3 -96 3 -111 39 -99 18 6 20 15 20
100 0 75 -3 94 -16 99 -21 8 -32 8 -36 -1z"/>
<path d="M1354 2262 c-83 -67 -43 -187 63 -187 38 0 49 5 68 29 13 17 22 33
19 38 -8 13 -42 9 -74 -7 -26 -13 -30 -13 -44 1 -21 20 -20 68 0 85 14 11 21
10 46 -4 62 -36 93 -15 49 32 -23 24 -37 31 -68 31 -21 0 -48 -8 -59 -18z"/>
<path d="M1544 2266 c-3 -7 -4 -53 -2 -102 l3 -89 51 -3 c37 -2 54 1 64 13 12
14 11 18 -1 26 -8 5 -24 9 -36 9 -22 0 -23 4 -23 80 0 79 0 80 -25 80 -14 0
-28 -6 -31 -14z"/>
<path d="M1694 2265 c-4 -8 -4 -47 -2 -85 4 -82 17 -99 76 -107 36 -5 45 -2
72 25 28 29 30 35 30 106 l0 76 -30 0 -29 0 -3 -72 c-3 -71 -4 -73 -30 -76
l-28 -3 0 75 c0 75 0 76 -25 76 -14 0 -28 -7 -31 -15z"/>
<path d="M1910 2174 l0 -107 70 5 c94 7 121 34 88 87 -9 15 -9 26 1 48 12 25
10 29 -14 50 -21 18 -38 23 -86 23 l-59 0 0 -106z m94 60 c21 -8 20 -30 0 -38
-24 -9 -47 13 -33 30 13 16 12 16 33 8z m14 -96 c3 -13 -3 -18 -21 -18 -29 0
-37 7 -30 27 8 19 47 12 51 -9z"/>
</g>
</svg>
