<?xml version="1.0" standalone="no"?>
<!DOCTYPE svg PUBLIC "-//W3C//DTD SVG 20010904//EN"
 "http://www.w3.org/TR/2001/REC-SVG-20010904/DTD/svg10.dtd">
<svg version="1.0" xmlns="http://www.w3.org/2000/svg"
 width="225.000000pt" height="225.000000pt" viewBox="0 0 225.000000 225.000000"
 preserveAspectRatio="xMidYMid meet">

<g transform="translate(0.000000,225.000000) scale(0.100000,-0.100000)"
fill="#000000" stroke="none">
<path d="M820 1611 c-22 -7 -593 -323 -646 -357 -11 -8 -31 -32 -43 -55 -29
-50 -25 -121 7 -167 16 -21 118 -84 349 -213 284 -159 333 -183 377 -186 137
-10 226 154 140 256 -14 16 -98 71 -188 121 -90 50 -171 96 -180 103 -15 11 6
26 156 109 189 106 213 124 234 174 53 126 -72 256 -206 215z"/>
<path d="M1327 1606 c-70 -25 -107 -76 -107 -146 0 -52 24 -104 59 -129 60
-43 629 -356 661 -365 82 -21 179 35 201 117 14 52 -3 116 -40 150 -29 28
-606 354 -661 373 -45 17 -66 16 -113 0z"/>
</g>
</svg>
