<svg version="1.1" id="Layer_1" xmlns="http://www.w3.org/2000/svg" xmlns:xlink="http://www.w3.org/1999/xlink" x="0px" y="0px"
	 width="100%" viewBox="0 0 500 500" enable-background="new 0 0 500 500" xml:space="preserve">
<path fill="#FFFFFF" opacity="1.000000" stroke="none" 
	d="
M289.000000,501.000000 
	C192.666687,501.000000 96.833382,501.000000 1.000051,501.000000 
	C1.000034,334.333405 1.000034,167.666794 1.000017,1.000141 
	C167.666565,1.000094 334.333130,1.000094 500.999756,1.000047 
	C500.999847,167.666519 500.999847,334.333038 500.999939,500.999786 
	C430.500000,501.000000 360.000000,501.000000 289.000000,501.000000 
M359.843170,266.773407 
	C363.615356,266.060059 364.472473,268.290588 364.552826,271.381500 
	C364.618591,273.911530 364.766022,276.439423 364.877228,278.968292 
	C365.601074,278.947388 366.324951,278.926514 367.048798,278.905640 
	C367.048798,276.049194 367.151581,273.188232 367.027344,270.337219 
	C366.770569,264.444916 363.216614,262.768127 357.320801,265.812683 
	C356.614624,265.628326 355.908447,265.443939 355.202271,265.259552 
	C355.202271,269.780396 355.202271,274.301208 355.202271,278.822052 
	C355.502930,278.810669 355.803558,278.799286 356.104218,278.787872 
	C357.056122,274.824463 358.008026,270.861023 359.843170,266.773407 
M112.381592,264.684265 
	C109.838699,265.640808 106.059486,265.918030 105.066147,267.725952 
	C103.826981,269.981262 104.738945,273.510864 105.007309,276.464355 
	C105.147865,278.011292 105.898125,279.502808 105.730637,280.987549 
	C105.667091,281.866547 105.399025,283.467194 105.570801,283.515839 
	C108.007423,284.206390 110.831276,285.646545 112.891846,284.943268 
	C114.887321,284.262238 117.151680,281.476532 117.463539,279.346649 
	C118.148941,274.665588 117.676147,269.815002 117.676147,265.081421 
	C115.822586,265.081421 114.395912,265.081421 112.381592,264.684265 
M233.085068,272.067596 
	C232.682114,271.197693 232.216492,270.350830 231.887054,269.453918 
	C230.496918,265.669006 227.778427,263.767731 223.815094,264.374268 
	C219.830093,264.984161 217.774841,267.660004 217.708633,271.675598 
	C217.647568,275.378784 219.200882,278.205902 222.963196,279.143066 
	C227.087738,280.170410 230.022507,278.516937 231.819595,274.635773 
	C232.281799,273.637573 233.242935,272.870422 234.078400,273.041412 
	C234.078400,277.029297 234.078400,281.017181 234.078400,285.005066 
	C234.784805,285.034729 235.491211,285.064392 236.197601,285.094086 
	C236.530090,282.897552 236.862595,280.701019 237.195084,278.504486 
	C237.437042,278.986908 237.679016,279.469330 237.920975,279.951782 
	C240.886536,278.890656 244.966583,278.643341 246.503220,276.538879 
	C248.030457,274.447296 247.922028,270.124878 246.862091,267.439362 
	C245.493698,263.972260 241.934189,263.490021 238.301193,264.992981 
	C237.229263,265.436432 235.818695,265.061279 234.293579,265.061279 
	C234.184875,267.447388 234.080109,269.746857 233.085068,272.067596 
M301.084290,212.059723 
	C309.243317,207.291718 309.504181,199.731400 301.554321,195.049820 
	C291.809052,189.310944 281.999023,183.680298 272.162354,178.099106 
	C266.915070,175.121841 261.771912,176.225739 259.095612,180.679993 
	C256.263550,185.393509 257.875092,190.326569 263.427094,193.643097 
	C268.994812,196.969009 274.611115,200.213638 279.662048,203.879593 
	C273.910736,207.234512 268.088013,210.474213 262.430481,213.980453 
	C257.826508,216.833755 256.562836,221.757660 258.983154,226.064392 
	C261.409760,230.382248 266.476532,232.036194 271.065826,229.446182 
	C280.910675,223.890152 290.589508,218.039917 301.084290,212.059723 
M201.976868,194.353775 
	C198.065765,195.970276 195.075363,198.284088 194.839462,203.001389 
	C194.604691,207.696030 197.285187,210.242722 201.013565,212.353836 
	C210.565735,217.762497 220.020844,223.342224 229.545898,228.799194 
	C235.004318,231.926376 240.242310,230.889313 242.994888,226.255173 
	C245.752350,221.612808 244.086349,216.618500 238.567810,213.274246 
	C233.027420,209.916763 227.438004,206.640137 222.539490,202.998871 
	C228.284622,199.658356 234.106903,196.442108 239.750443,192.938004 
	C244.263458,190.135880 245.471542,185.104446 243.026871,180.822495 
	C240.610291,176.589722 235.483673,174.932816 230.933807,177.496704 
	C221.390472,182.874481 212.023376,188.565018 201.976868,194.353775 
M69.350220,271.019928 
	C68.542229,267.461060 64.152328,266.670624 58.714882,269.736633 
	C61.706409,270.246155 63.988701,270.634857 66.270988,271.023560 
	C66.563957,271.485260 66.856934,271.946991 67.149902,272.408691 
	C65.138229,273.906708 63.073418,276.683105 61.127369,276.602234 
	C58.229733,276.481781 54.211906,275.060425 52.904045,272.863251 
	C51.587704,270.651855 51.912209,265.933228 53.526409,263.939819 
	C55.129993,261.959564 59.198116,261.799133 62.259418,261.262909 
	C63.463982,261.051910 64.868980,261.985138 66.182701,262.397308 
	C63.021812,257.883423 58.866932,257.159332 54.490391,259.410889 
	C50.210342,261.612793 48.025467,266.371735 49.071163,271.214630 
	C50.042820,275.714630 53.929245,279.070618 58.582031,279.427460 
	C63.928833,279.837524 67.250885,277.446167 69.350220,271.019928 
M440.808533,270.775757 
	C439.602203,264.558319 435.340759,263.515198 429.788086,264.820160 
	C429.346832,262.491699 428.984406,260.579315 428.622009,258.666962 
	C428.182251,258.713440 427.742493,258.759918 427.302734,258.806366 
	C427.302734,265.397247 427.302734,271.988129 427.302734,278.587158 
	C439.749329,278.153137 439.749329,278.153137 440.808533,270.775757 
M148.762421,274.209747 
	C148.762421,275.684418 148.762421,277.159119 148.762421,278.880402 
	C154.642197,279.069427 160.896515,280.247437 163.635880,274.128876 
	C165.035080,271.003693 164.856415,266.006500 163.268829,262.962006 
	C160.325989,257.318512 154.339554,258.698700 148.763031,259.027863 
	C148.763031,264.002655 148.763031,268.638733 148.762421,274.209747 
M283.237152,277.200439 
	C284.200745,277.828796 285.086029,278.751678 286.142059,279.032379 
	C289.867340,280.022797 293.385559,279.469513 294.891571,275.518738 
	C296.331635,271.741028 294.295013,269.159454 290.739899,267.701752 
	C289.666107,267.261475 288.351929,267.088654 287.563477,266.349762 
	C286.514587,265.366821 285.872375,263.949951 285.055481,262.719452 
	C286.610596,262.123108 288.170380,261.058838 289.719452,261.074188 
	C291.027527,261.087158 292.323181,262.352203 294.429474,263.503021 
	C293.518188,259.027191 290.864563,257.714508 288.158905,258.386292 
	C285.961151,258.931976 283.243744,260.871613 282.559204,262.824768 
	C282.086273,264.173950 284.457245,266.812347 285.997253,268.464661 
	C286.917664,269.452179 289.064850,269.299713 289.978271,270.289429 
	C291.108276,271.513824 291.530884,273.391052 292.259155,274.986206 
	C290.233429,275.405365 288.166870,276.251312 286.199310,276.062927 
	C285.221954,275.969330 284.426453,273.976654 283.548706,272.843109 
	C283.068665,273.090515 282.588623,273.337921 282.108612,273.585297 
	C282.329193,274.601318 282.549774,275.617340 283.237152,277.200439 
M400.557678,259.814514 
	C393.678192,256.763397 387.478973,258.750488 385.158752,264.750458 
	C382.836151,270.756531 386.085052,277.504822 392.073334,279.112701 
	C397.025421,280.442413 401.217499,278.667053 402.047546,274.888672 
	C401.907623,274.806396 401.719788,274.619202 401.635040,274.657837 
	C400.617859,275.122009 399.621490,275.631409 398.609131,276.106537 
	C393.007263,278.735565 387.054443,275.016296 387.043854,268.884979 
	C387.032745,262.466736 392.690582,259.090576 398.965057,261.771332 
	C401.334564,262.783691 401.334564,262.783691 400.557678,259.814514 
M263.483307,276.360107 
	C262.399658,276.386505 261.187012,276.104309 260.255096,276.493774 
	C256.584686,278.027710 254.698441,276.994873 254.012238,272.478302 
	C257.392212,272.327911 260.745300,272.178711 264.100250,272.029419 
	C263.566071,266.483185 261.324951,264.090454 257.263397,264.246796 
	C253.499908,264.391632 250.230637,267.469635 250.709518,271.462555 
	C251.008270,273.953461 252.378922,277.017944 254.295822,278.447449 
	C257.141907,280.569824 260.598846,279.849396 263.483307,276.360107 
M205.057526,277.031891 
	C202.020752,277.308228 199.864990,276.537415 199.930786,272.475128 
	C203.462402,272.316559 206.830185,272.165375 210.201797,272.014008 
	C209.691299,266.645691 207.644485,264.315826 203.807419,264.247986 
	C199.940201,264.179657 196.977295,266.995209 196.748306,271.142883 
	C196.520432,275.270538 198.051666,278.402710 202.414307,279.249451 
	C205.612488,279.870209 208.231018,278.959625 209.673706,276.255493 
	C209.420914,275.820343 209.168121,275.385193 208.915344,274.950073 
	C207.877335,275.571106 206.839325,276.192139 205.057526,277.031891 
M343.294617,279.183411 
	C348.961639,279.556427 350.059998,278.963715 350.628174,275.225891 
	C343.679932,278.147705 342.238770,277.742004 341.571289,272.174561 
	C344.995911,272.174561 348.384155,272.174561 351.968964,272.174561 
	C351.901031,267.664551 350.210266,264.906158 346.145142,264.342682 
	C342.359558,263.817993 339.733185,265.678162 338.653259,269.361542 
	C337.426086,273.547119 338.651123,276.844147 343.294617,279.183411 
M169.192352,277.225006 
	C174.416046,280.837250 178.231918,280.192322 179.880722,275.418518 
	C171.750122,277.660370 171.750122,277.660370 170.225769,272.184723 
	C173.890106,272.184723 177.393814,272.184723 180.971222,272.184723 
	C180.966003,267.685974 179.278641,264.644623 175.487381,264.563873 
	C173.126785,264.513611 169.489929,266.010895 168.640854,267.841187 
	C167.528366,270.239288 168.600372,273.650787 169.192352,277.225006 
M336.037781,269.501495 
	C336.037781,265.926361 336.037781,262.351196 336.037781,258.776062 
	C335.415558,258.769257 334.793335,258.762451 334.171112,258.755646 
	C333.776764,260.858368 333.382385,262.961060 332.992035,265.042450 
	C332.396179,265.000061 332.036316,265.055756 331.742920,264.941132 
	C328.409332,263.638916 324.866821,263.934387 323.542511,267.193481 
	C322.448029,269.886871 322.439575,273.690308 323.484558,276.412842 
	C324.754364,279.720917 328.249054,279.955933 331.648071,278.861603 
	C332.900970,278.458282 334.356628,278.684601 336.037811,278.609528 
	C336.037811,275.732422 336.037811,273.101501 336.037781,269.501495 
M134.209915,272.246613 
	C135.932724,272.157837 137.655533,272.069031 139.431747,271.977509 
	C138.582153,266.252380 136.270447,263.951843 132.246857,264.265686 
	C128.464981,264.560638 125.784256,267.617065 125.822121,271.792114 
	C125.860161,275.987000 127.791687,278.785797 132.145004,279.367096 
	C135.745682,279.847900 137.493866,278.576660 138.139694,275.290924 
	C131.378448,278.115234 130.352127,277.855804 128.948730,272.559753 
	C130.456619,272.451660 131.891098,272.348816 134.209915,272.246613 
M85.957642,270.795013 
	C85.155983,266.658752 82.645851,263.736969 78.486618,264.460693 
	C76.047813,264.885101 73.133110,267.200775 71.993378,269.454895 
	C69.927917,273.539978 72.679703,278.256714 76.818604,279.262482 
	C81.720749,280.453735 85.100822,277.630157 85.957642,270.795013 
M87.717865,270.080109 
	C87.613594,275.896240 89.486633,278.884247 93.683388,279.360016 
	C97.695526,279.814758 100.468666,278.041504 101.746559,274.237244 
	C103.040115,270.386353 101.073494,265.982452 97.449432,264.795654 
	C92.932373,263.316437 89.677689,264.912079 87.717865,270.080109 
M422.815186,278.882568 
	C424.653564,273.266785 424.100281,266.479126 420.967651,264.424194 
	C420.967651,267.122864 421.458008,269.520844 420.828094,271.575378 
	C420.213013,273.581512 418.680817,276.521027 417.152130,276.791016 
	C413.455170,277.444000 413.990387,274.021820 413.843445,271.612915 
	C413.702515,269.302795 413.567719,266.992340 413.430206,264.682007 
	C408.170135,274.579437 411.410797,279.515656 421.128479,278.563446 
	C421.418427,278.535004 421.736938,278.798828 422.815186,278.882568 
M309.830231,267.122803 
	C309.419434,266.345062 309.008636,265.567352 308.597839,264.789612 
	C308.118317,265.133057 307.206299,265.502258 307.224976,265.816101 
	C307.457672,269.728668 307.008362,273.958130 308.395386,277.445587 
	C309.702698,280.732819 313.275116,279.783234 316.229309,278.454071 
	C317.037567,278.090393 318.267639,278.664185 318.839905,278.743469 
	C318.839905,273.858582 318.839905,269.300079 318.839905,264.741577 
	C318.210297,264.756866 317.580688,264.772186 316.951080,264.787476 
	C316.951080,267.293304 317.450165,269.941040 316.790833,272.259338 
	C316.276825,274.066650 314.322113,275.464203 313.007599,277.043823 
	C311.951263,275.506805 310.588715,274.087585 309.937744,272.394684 
	C309.437744,271.094391 309.834259,269.449371 309.830231,267.122803 
M452.825775,266.761963 
	C451.955902,266.055573 451.190216,265.013611 450.196808,264.705261 
	C447.115540,263.748901 443.971436,263.888733 442.772491,267.428101 
	C441.597778,270.895935 444.405914,271.916687 447.057556,272.808014 
	C448.472931,273.283752 449.798157,274.027740 451.360504,274.740234 
	C448.119263,279.822235 445.381622,274.768646 442.039764,275.126709 
	C443.517731,278.775208 446.065521,280.086975 449.131714,279.220154 
	C450.862915,278.730774 452.165039,276.723602 453.660431,275.400085 
	C451.909332,273.753937 450.235474,272.012848 448.375671,270.500366 
	C447.395844,269.703552 446.091339,269.305969 444.933472,268.728119 
	C445.086090,268.130890 445.238739,267.533630 445.391357,266.936401 
	C447.847168,267.135193 450.302948,267.333954 452.825775,266.761963 
M194.765793,264.877228 
	C192.600052,268.070221 190.434326,271.263214 188.308411,274.397491 
	C185.849030,271.960236 187.068497,266.562592 181.431854,264.263214 
	C183.456345,269.320801 184.936630,273.172699 186.564651,276.961121 
	C186.905762,277.754822 188.005539,278.974091 188.383163,278.851318 
	C189.299805,278.553284 190.351913,277.730774 190.721695,276.854614 
	C192.326050,273.053314 193.705582,269.157074 194.765793,264.877228 
M374.921692,264.664124 
	C373.996704,263.320679 373.071716,261.977203 372.071655,260.524719 
	C370.857849,262.519562 369.779541,264.291718 368.701202,266.063873 
	C369.153351,266.027191 369.605469,265.990540 370.057617,265.953857 
	C370.341400,268.874603 370.676636,271.791443 370.896881,274.716980 
	C371.223175,279.052429 372.653412,279.954498 376.735687,278.293488 
	C372.002258,274.612335 371.934204,270.800110 376.448273,266.195679 
	C376.554596,266.087189 375.946442,265.278229 374.921692,264.664124 
M298.984955,270.767761 
	C298.998199,272.419098 298.829803,274.096558 299.062439,275.716370 
	C299.549896,279.110901 301.207092,279.790680 304.849609,278.289124 
	C300.095184,274.544220 300.073486,268.789093 304.512299,265.993195 
	C302.994690,264.173218 301.529663,262.416290 300.025635,260.612640 
	C298.919891,262.566833 297.902557,264.364807 297.305878,265.419342 
	C297.991913,267.264526 298.488220,268.599335 298.984955,270.767761 
M405.937134,259.373322 
	C404.691193,268.346588 405.284332,276.897919 407.976166,279.416962 
	C407.976166,273.767059 408.073669,268.748535 407.919128,263.737823 
	C407.870270,262.152832 407.147949,260.588623 405.937134,259.373322 
M215.132385,260.839966 
	C214.722229,260.217743 214.312088,259.595551 213.565369,258.462708 
	C213.565369,265.776062 213.565369,272.280212 213.565369,278.784332 
	C214.094009,278.796600 214.622650,278.808899 215.151291,278.821167 
	C215.151291,273.140442 215.151291,267.459686 215.132385,260.839966 
M120.988541,267.540192 
	C120.988541,271.297516 120.988541,275.054840 120.988541,278.812164 
	C121.533653,278.795441 122.078758,278.778687 122.623871,278.761963 
	C122.623871,272.231750 122.623871,265.701508 122.623871,259.171295 
	C122.078758,259.149902 121.533653,259.128510 120.988541,259.107086 
	C120.988541,261.597168 120.988541,264.087250 120.988541,267.540192 
M267.245209,265.310150 
	C267.245209,269.829529 267.245209,274.348907 267.245209,278.868317 
	C267.850128,278.840485 268.455017,278.812653 269.059937,278.784851 
	C267.948517,274.217957 271.289917,269.589081 267.245209,265.310150 
z"/>
<path fill="#4686F4" opacity="1.000000" stroke="none" 
	d="
M221.870087,203.328079 
	C227.438004,206.640137 233.027420,209.916763 238.567810,213.274246 
	C244.086349,216.618500 245.752350,221.612808 242.994888,226.255173 
	C240.242310,230.889313 235.004318,231.926376 229.545898,228.799194 
	C220.020844,223.342224 210.565735,217.762497 201.013565,212.353836 
	C197.285187,210.242722 194.604691,207.696030 194.839462,203.001389 
	C195.075363,198.284088 198.065765,195.970276 202.681061,194.294266 
	C209.546860,197.265869 215.708481,200.296967 221.870087,203.328079 
z"/>
<path fill="#139E5A" opacity="1.000000" stroke="none" 
	d="
M280.206146,203.493896 
	C274.611115,200.213638 268.994812,196.969009 263.427094,193.643097 
	C257.875092,190.326569 256.263550,185.393509 259.095612,180.679993 
	C261.771912,176.225739 266.915070,175.121841 272.162354,178.099106 
	C281.999023,183.680298 291.809052,189.310944 301.554321,195.049820 
	C309.504181,199.731400 309.243317,207.291718 300.350525,212.143066 
	C297.143799,211.555054 294.506592,211.226517 292.233734,210.137527 
	C288.110107,208.161819 284.203400,205.733368 280.206146,203.493896 
z"/>
<path fill="#F9BC09" opacity="1.000000" stroke="none" 
	d="
M279.934082,203.686737 
	C284.203400,205.733368 288.110107,208.161819 292.233734,210.137527 
	C294.506592,211.226517 297.143799,211.555054 299.976532,212.268280 
	C290.589508,218.039917 280.910675,223.890152 271.065826,229.446182 
	C266.476532,232.036194 261.409760,230.382248 258.983154,226.064392 
	C256.562836,221.757660 257.826508,216.833755 262.430481,213.980453 
	C268.088013,210.474213 273.910736,207.234512 279.934082,203.686737 
z"/>
<path fill="#EA4639" opacity="1.000000" stroke="none" 
	d="
M222.204788,203.163483 
	C215.708481,200.296967 209.546860,197.265869 202.984589,194.180939 
	C212.023376,188.565018 221.390472,182.874481 230.933807,177.496704 
	C235.483673,174.932816 240.610291,176.589722 243.026871,180.822495 
	C245.471542,185.104446 244.263458,190.135880 239.750443,192.938004 
	C234.106903,196.442108 228.284622,199.658356 222.204788,203.163483 
z"/>
<path fill="#767C82" opacity="1.000000" stroke="none" 
	d="
M69.285095,271.394836 
	C67.250885,277.446167 63.928833,279.837524 58.582031,279.427460 
	C53.929245,279.070618 50.042820,275.714630 49.071163,271.214630 
	C48.025467,266.371735 50.210342,261.612793 54.490391,259.410889 
	C58.866932,257.159332 63.021812,257.883423 66.182701,262.397308 
	C64.868980,261.985138 63.463982,261.051910 62.259418,261.262909 
	C59.198116,261.799133 55.129993,261.959564 53.526409,263.939819 
	C51.912209,265.933228 51.587704,270.651855 52.904045,272.863251 
	C54.211906,275.060425 58.229733,276.481781 61.127369,276.602234 
	C63.073418,276.683105 65.138229,273.906708 67.149902,272.408691 
	C66.856934,271.946991 66.563957,271.485260 66.270988,271.023560 
	C63.988701,270.634857 61.706409,270.246155 58.714882,269.736633 
	C64.152328,266.670624 68.542229,267.461060 69.285095,271.394836 
z"/>
<path fill="#747A80" opacity="1.000000" stroke="none" 
	d="
M440.837646,271.167297 
	C439.749329,278.153137 439.749329,278.153137 427.302734,278.587158 
	C427.302734,271.988129 427.302734,265.397247 427.302734,258.806366 
	C427.742493,258.759918 428.182251,258.713440 428.622009,258.666962 
	C428.984406,260.579315 429.346832,262.491699 429.788086,264.820160 
	C435.340759,263.515198 439.602203,264.558319 440.837646,271.167297 
M437.222626,268.369202 
	C435.051392,268.155457 431.844116,266.987854 430.954620,267.954102 
	C429.657898,269.362610 429.324036,272.526245 429.946136,274.514008 
	C430.333008,275.750092 434.142303,277.325470 434.839569,276.770050 
	C436.457733,275.481140 437.192047,273.024353 438.115082,270.964996 
	C438.326294,270.493744 437.852295,269.715302 437.222626,268.369202 
z"/>
<path fill="#6B7178" opacity="1.000000" stroke="none" 
	d="
M148.762726,273.742249 
	C148.763031,268.638733 148.763031,264.002655 148.763031,259.027863 
	C154.339554,258.698700 160.325989,257.318512 163.268829,262.962006 
	C164.856415,266.006500 165.035080,271.003693 163.635880,274.128876 
	C160.896515,280.247437 154.642197,279.069427 148.762421,278.880402 
	C148.762421,277.159119 148.762421,275.684418 148.762726,273.742249 
M151.099380,271.335083 
	C151.099380,273.084167 151.099380,274.833252 151.099380,276.592834 
	C155.830841,277.097260 160.086899,277.047363 161.685959,272.874481 
	C162.667343,270.313446 162.450577,266.504730 161.199661,264.061127 
	C159.309616,260.368988 155.242798,260.659943 151.099426,261.376068 
	C151.099426,264.480438 151.099426,267.440063 151.099380,271.335083 
z"/>
<path fill="#767C82" opacity="1.000000" stroke="none" 
	d="
M283.003754,276.916870 
	C282.549774,275.617340 282.329193,274.601318 282.108612,273.585297 
	C282.588623,273.337921 283.068665,273.090515 283.548706,272.843109 
	C284.426453,273.976654 285.221954,275.969330 286.199310,276.062927 
	C288.166870,276.251312 290.233429,275.405365 292.259155,274.986206 
	C291.530884,273.391052 291.108276,271.513824 289.978271,270.289429 
	C289.064850,269.299713 286.917664,269.452179 285.997253,268.464661 
	C284.457245,266.812347 282.086273,264.173950 282.559204,262.824768 
	C283.243744,260.871613 285.961151,258.931976 288.158905,258.386292 
	C290.864563,257.714508 293.518188,259.027191 294.429474,263.503021 
	C292.323181,262.352203 291.027527,261.087158 289.719452,261.074188 
	C288.170380,261.058838 286.610596,262.123108 285.055481,262.719482 
	C285.872375,263.949951 286.514587,265.366821 287.563477,266.349762 
	C288.351929,267.088654 289.666107,267.261475 290.739899,267.701752 
	C294.295013,269.159454 296.331635,271.741028 294.891571,275.518738 
	C293.385559,279.469513 289.867340,280.022797 286.142059,279.032379 
	C285.086029,278.751678 284.200745,277.828796 283.003754,276.916870 
z"/>
<path fill="#7E8389" opacity="1.000000" stroke="none" 
	d="
M233.975342,272.046326 
	C234.080109,269.746857 234.184875,267.447388 234.293579,265.061279 
	C235.818695,265.061279 237.229263,265.436432 238.301193,264.992981 
	C241.934189,263.490021 245.493698,263.972260 246.862091,267.439362 
	C247.922028,270.124878 248.030457,274.447296 246.503220,276.538879 
	C244.966583,278.643341 240.886536,278.890656 237.920975,279.951782 
	C237.679016,279.469330 237.437042,278.986908 237.195084,278.504486 
	C236.862595,280.701019 236.530090,282.897552 236.197601,285.094086 
	C235.491211,285.064392 234.784805,285.034729 234.078400,285.005066 
	C234.078400,281.017181 234.078400,277.029297 234.013092,272.542297 
	C233.947800,272.043182 233.975342,272.046326 233.975342,272.046326 
M243.691238,276.473083 
	C244.378021,275.359924 245.722504,274.175629 245.611389,273.148834 
	C245.396240,271.160461 244.767639,268.906219 243.507599,267.463104 
	C242.800980,266.653839 239.882645,266.589417 239.039032,267.363892 
	C237.770309,268.528625 236.806061,270.741119 236.854416,272.476379 
	C236.957260,276.167328 239.239151,277.767487 243.691238,276.473083 
z"/>
<path fill="#767C82" opacity="1.000000" stroke="none" 
	d="
M400.858704,260.038849 
	C401.334564,262.783691 401.334564,262.783691 398.965057,261.771332 
	C392.690582,259.090576 387.032745,262.466736 387.043854,268.884979 
	C387.054443,275.016296 393.007263,278.735565 398.609131,276.106537 
	C399.621490,275.631409 400.617859,275.122009 401.635040,274.657837 
	C401.719788,274.619202 401.907623,274.806396 402.047546,274.888672 
	C401.217499,278.667053 397.025421,280.442413 392.073334,279.112701 
	C386.085052,277.504822 382.836151,270.756531 385.158752,264.750458 
	C387.478973,258.750488 393.678192,256.763397 400.858704,260.038849 
z"/>
<path fill="#767C82" opacity="1.000000" stroke="none" 
	d="
M263.328827,276.663818 
	C260.598846,279.849396 257.141907,280.569824 254.295822,278.447449 
	C252.378922,277.017944 251.008270,273.953461 250.709518,271.462555 
	C250.230637,267.469635 253.499908,264.391632 257.263397,264.246796 
	C261.324951,264.090454 263.566071,266.483185 264.100250,272.029419 
	C260.745300,272.178711 257.392212,272.327911 254.012238,272.478302 
	C254.698441,276.994873 256.584686,278.027710 260.255096,276.493774 
	C261.187012,276.104309 262.399658,276.386505 263.328827,276.663818 
M259.248596,270.086884 
	C259.567108,269.162781 260.344482,267.558594 260.134888,267.417206 
	C257.271027,265.484894 255.142883,266.092651 253.682495,269.852295 
	C255.538605,269.950104 256.964752,270.025238 259.248596,270.086884 
z"/>
<path fill="#747A80" opacity="1.000000" stroke="none" 
	d="
M205.429413,276.922546 
	C206.839325,276.192139 207.877335,275.571106 208.915344,274.950073 
	C209.168121,275.385193 209.420914,275.820343 209.673706,276.255493 
	C208.231018,278.959625 205.612488,279.870209 202.414307,279.249451 
	C198.051666,278.402710 196.520432,275.270538 196.748306,271.142883 
	C196.977295,266.995209 199.940201,264.179657 203.807419,264.247986 
	C207.644485,264.315826 209.691299,266.645691 210.201797,272.014008 
	C206.830185,272.165375 203.462402,272.316559 199.930786,272.475128 
	C199.864990,276.537415 202.020752,277.308228 205.429413,276.922546 
M206.580811,270.040894 
	C205.962448,268.862061 205.297180,266.667908 204.734497,266.693878 
	C203.015579,266.773346 201.336136,267.707031 199.641342,268.308350 
	C199.802338,268.905670 199.963333,269.502991 200.124329,270.100311 
	C202.014130,270.100311 203.903915,270.100311 206.580811,270.040894 
z"/>
<path fill="#767C82" opacity="1.000000" stroke="none" 
	d="
M342.937256,279.082275 
	C338.651123,276.844147 337.426086,273.547119 338.653259,269.361542 
	C339.733185,265.678162 342.359558,263.817993 346.145142,264.342682 
	C350.210266,264.906158 351.901031,267.664551 351.968964,272.174561 
	C348.384155,272.174561 344.995911,272.174561 341.571289,272.174561 
	C342.238770,277.742004 343.679932,278.147705 350.628174,275.225891 
	C350.059998,278.963715 348.961639,279.556427 342.937256,279.082275 
M344.669617,270.103271 
	C346.055969,269.990692 347.442322,269.878113 349.057312,269.746979 
	C346.011810,265.140869 343.806702,265.249847 341.389618,269.871979 
	C342.260651,269.953461 343.054626,270.027710 344.669617,270.103271 
z"/>
<path fill="#767C82" opacity="1.000000" stroke="none" 
	d="
M168.962555,276.925720 
	C168.600372,273.650787 167.528366,270.239288 168.640854,267.841187 
	C169.489929,266.010895 173.126785,264.513611 175.487381,264.563873 
	C179.278641,264.644623 180.966003,267.685974 180.971222,272.184723 
	C177.393814,272.184723 173.890106,272.184723 170.225769,272.184723 
	C171.750122,277.660370 171.750122,277.660370 179.880722,275.418518 
	C178.231918,280.192322 174.416046,280.837250 168.962555,276.925720 
M172.066727,270.092224 
	C173.974167,270.092224 175.881592,270.092224 177.789032,270.092224 
	C177.952621,269.491089 178.116211,268.889984 178.279800,268.288849 
	C176.580460,267.698822 174.891052,266.757080 173.176407,266.708679 
	C172.572906,266.691650 171.907654,268.862915 172.066727,270.092224 
z"/>
<path fill="#747A80" opacity="1.000000" stroke="none" 
	d="
M336.037781,269.986023 
	C336.037811,273.101501 336.037811,275.732422 336.037811,278.609528 
	C334.356628,278.684601 332.900970,278.458282 331.648071,278.861603 
	C328.249054,279.955933 324.754364,279.720917 323.484558,276.412842 
	C322.439575,273.690308 322.448029,269.886871 323.542511,267.193481 
	C324.866821,263.934387 328.409332,263.638916 331.742920,264.941132 
	C332.036316,265.055756 332.396179,265.000061 332.992035,265.042450 
	C333.382385,262.961060 333.776764,260.858368 334.171112,258.755646 
	C334.793335,258.762451 335.415558,258.769257 336.037781,258.776062 
	C336.037781,262.351196 336.037781,265.926361 336.037781,269.986023 
M333.219055,269.478149 
	C330.079956,265.632385 326.753296,265.265839 325.229736,268.942047 
	C324.471832,270.770721 324.684784,273.596771 325.634216,275.326263 
	C326.254181,276.455505 330.077606,277.333466 330.566803,276.745056 
	C332.044403,274.967651 332.594574,272.419250 333.219055,269.478149 
z"/>
<path fill="#747A80" opacity="1.000000" stroke="none" 
	d="
M133.767761,272.246307 
	C131.891098,272.348816 130.456619,272.451660 128.948730,272.559753 
	C130.352127,277.855804 131.378448,278.115234 138.139694,275.290924 
	C137.493866,278.576660 135.745682,279.847900 132.145004,279.367096 
	C127.791687,278.785797 125.860161,275.987000 125.822121,271.792114 
	C125.784256,267.617065 128.464981,264.560638 132.246857,264.265686 
	C136.270447,263.951843 138.582153,266.252380 139.431747,271.977509 
	C137.655533,272.069031 135.932724,272.157837 133.767761,272.246307 
M132.499359,266.300842 
	C131.247223,267.180664 129.995102,268.060516 127.634987,269.718933 
	C131.714645,269.718933 134.142502,269.718933 136.570358,269.718933 
	C136.689362,269.403229 136.808380,269.087494 136.927383,268.771790 
	C135.697800,267.959717 134.468201,267.147614 132.499359,266.300842 
z"/>
<path fill="#797F84" opacity="1.000000" stroke="none" 
	d="
M85.977928,271.194641 
	C85.100822,277.630157 81.720749,280.453735 76.818604,279.262482 
	C72.679703,278.256714 69.927917,273.539978 71.993378,269.454895 
	C73.133110,267.200775 76.047813,264.885101 78.486618,264.460693 
	C82.645851,263.736969 85.155983,266.658752 85.977928,271.194641 
M79.375328,277.120758 
	C80.521683,276.266083 82.628754,275.414124 82.631172,274.556244 
	C82.637970,272.147095 82.200958,269.491119 81.028214,267.457794 
	C80.619789,266.749634 76.325180,266.994263 75.932198,267.818207 
	C74.931892,269.915405 74.796448,272.618622 75.034843,275.007477 
	C75.117516,275.835938 77.318398,276.453003 79.375328,277.120758 
z"/>
<path fill="#747A80" opacity="1.000000" stroke="none" 
	d="
M87.797806,269.716461 
	C89.677689,264.912079 92.932373,263.316437 97.449432,264.795654 
	C101.073494,265.982452 103.040115,270.386353 101.746559,274.237244 
	C100.468666,278.041504 97.695526,279.814758 93.683388,279.360016 
	C89.486633,278.884247 87.613594,275.896240 87.797806,269.716461 
M95.296486,277.161102 
	C98.723816,276.450958 100.191139,273.996368 99.394966,270.962921 
	C98.939072,269.225952 96.966148,266.941772 95.407822,266.710236 
	C93.904510,266.486847 90.784660,268.437714 90.639412,269.695007 
	C90.382225,271.921173 91.773956,274.371460 92.652054,276.660248 
	C92.789261,277.017883 93.857574,277.018280 95.296486,277.161102 
z"/>
<path fill="#868B90" opacity="1.000000" stroke="none" 
	d="
M422.428650,278.904480 
	C421.736938,278.798828 421.418427,278.535004 421.128479,278.563446 
	C411.410797,279.515656 408.170135,274.579437 413.430206,264.682007 
	C413.567719,266.992340 413.702515,269.302795 413.843445,271.612915 
	C413.990387,274.021820 413.455170,277.444000 417.152130,276.791016 
	C418.680817,276.521027 420.213013,273.581512 420.828094,271.575378 
	C421.458008,269.520844 420.967651,267.122864 420.967651,264.424194 
	C424.100281,266.479126 424.653564,273.266785 422.428650,278.904480 
z"/>
<path fill="#868B90" opacity="1.000000" stroke="none" 
	d="
M309.831177,267.540222 
	C309.834259,269.449371 309.437744,271.094391 309.937744,272.394684 
	C310.588715,274.087585 311.951263,275.506805 313.007599,277.043823 
	C314.322113,275.464203 316.276825,274.066650 316.790833,272.259338 
	C317.450165,269.941040 316.951080,267.293304 316.951080,264.787476 
	C317.580688,264.772186 318.210297,264.756866 318.839905,264.741577 
	C318.839905,269.300079 318.839905,273.858582 318.839905,278.743469 
	C318.267639,278.664185 317.037567,278.090393 316.229309,278.454071 
	C313.275116,279.783234 309.702698,280.732819 308.395386,277.445587 
	C307.008362,273.958130 307.457672,269.728668 307.224976,265.816101 
	C307.206299,265.502258 308.118317,265.133057 308.597839,264.789612 
	C309.008636,265.567352 309.419434,266.345062 309.831177,267.540222 
z"/>
<path fill="#747A80" opacity="1.000000" stroke="none" 
	d="
M233.530212,272.056946 
	C233.975342,272.046326 233.947800,272.043182 233.961334,272.020142 
	C233.242935,272.870422 232.281799,273.637573 231.819595,274.635773 
	C230.022507,278.516937 227.087738,280.170410 222.963196,279.143066 
	C219.200882,278.205902 217.647568,275.378784 217.708633,271.675598 
	C217.774841,267.660004 219.830093,264.984161 223.815094,264.374268 
	C227.778427,263.767731 230.496918,265.669006 231.887054,269.453918 
	C232.216492,270.350830 232.682114,271.197693 233.530212,272.056946 
M225.389130,277.174042 
	C228.920776,276.577637 230.306473,274.046295 229.571945,271.032227 
	C229.148071,269.292999 227.228302,267.208374 225.558441,266.716492 
	C224.313858,266.349884 221.316406,268.021698 221.010422,269.258453 
	C220.496399,271.336182 221.338821,273.837067 221.979446,276.053284 
	C222.146301,276.630493 223.677734,276.813202 225.389130,277.174042 
z"/>
<path fill="#797F84" opacity="1.000000" stroke="none" 
	d="
M452.792267,267.147339 
	C450.302948,267.333954 447.847168,267.135193 445.391357,266.936401 
	C445.238739,267.533630 445.086090,268.130890 444.933472,268.728119 
	C446.091339,269.305969 447.395844,269.703552 448.375671,270.500366 
	C450.235474,272.012848 451.909332,273.753937 453.660431,275.400085 
	C452.165039,276.723602 450.862915,278.730774 449.131714,279.220154 
	C446.065521,280.086975 443.517731,278.775208 442.039764,275.126709 
	C445.381622,274.768646 448.119263,279.822235 451.360504,274.740234 
	C449.798157,274.027740 448.472931,273.283752 447.057556,272.808014 
	C444.405914,271.916687 441.597778,270.895935 442.772491,267.428101 
	C443.971436,263.888733 447.115540,263.748901 450.196808,264.705261 
	C451.190216,265.013611 451.955902,266.055573 452.792267,267.147339 
z"/>
<path fill="#7E8389" opacity="1.000000" stroke="none" 
	d="
M112.969238,265.081421 
	C114.395912,265.081421 115.822586,265.081421 117.676147,265.081421 
	C117.676147,269.815002 118.148941,274.665588 117.463539,279.346649 
	C117.151680,281.476532 114.887321,284.262238 112.891846,284.943268 
	C110.831276,285.646545 108.007423,284.206390 105.570801,283.515839 
	C105.399025,283.467194 105.667091,281.866547 106.070251,280.981445 
	C106.409874,280.975311 106.463150,281.006409 106.769562,281.265259 
	C109.251900,281.785309 111.427818,282.046478 113.603729,282.307678 
	C113.733246,280.861267 113.862755,279.414856 113.866592,277.740967 
	C113.454666,277.324890 113.168404,277.136230 113.113121,276.654541 
	C116.267334,271.692383 115.927986,269.684235 111.901985,266.092194 
	C112.438576,265.668518 112.703911,265.374969 112.969238,265.081421 
z"/>
<path fill="#767C82" opacity="1.000000" stroke="none" 
	d="
M194.966324,265.086304 
	C193.705582,269.157074 192.326050,273.053314 190.721695,276.854614 
	C190.351913,277.730774 189.299805,278.553284 188.383163,278.851318 
	C188.005539,278.974091 186.905762,277.754822 186.564651,276.961121 
	C184.936630,273.172699 183.456345,269.320801 181.431854,264.263214 
	C187.068497,266.562592 185.849030,271.960236 188.308411,274.397491 
	C190.434326,271.263214 192.600052,268.070221 194.966324,265.086304 
z"/>
<path fill="#747A80" opacity="1.000000" stroke="none" 
	d="
M375.296631,264.730072 
	C375.946442,265.278229 376.554596,266.087189 376.448273,266.195679 
	C371.934204,270.800110 372.002258,274.612335 376.735687,278.293488 
	C372.653412,279.954498 371.223175,279.052429 370.896881,274.716980 
	C370.676636,271.791443 370.341400,268.874603 370.057617,265.953857 
	C369.605469,265.990540 369.153351,266.027191 368.701202,266.063873 
	C369.779541,264.291718 370.857849,262.519562 372.071655,260.524719 
	C373.071716,261.977203 373.996704,263.320679 375.296631,264.730072 
z"/>
<path fill="#747A80" opacity="1.000000" stroke="none" 
	d="
M298.984741,270.350952 
	C298.488220,268.599335 297.991913,267.264526 297.305878,265.419342 
	C297.902557,264.364807 298.919891,262.566833 300.025635,260.612640 
	C301.529663,262.416290 302.994690,264.173218 304.512299,265.993195 
	C300.073486,268.789093 300.095184,274.544220 304.849609,278.289124 
	C301.207092,279.790680 299.549896,279.110901 299.062439,275.716370 
	C298.829803,274.096558 298.998199,272.419098 298.984741,270.350952 
z"/>
<path fill="#767C82" opacity="1.000000" stroke="none" 
	d="
M106.463150,281.006409 
	C106.463150,281.006409 106.409874,280.975311 106.391449,280.997314 
	C105.898125,279.502808 105.147865,278.011292 105.007309,276.464355 
	C104.738945,273.510864 103.826981,269.981262 105.066147,267.725952 
	C106.059486,265.918030 109.838699,265.640808 112.675415,264.882843 
	C112.703911,265.374969 112.438576,265.668518 111.565300,266.128296 
	C107.029762,266.896301 105.672134,269.502655 106.227821,273.045105 
	C106.814018,276.782074 109.473511,277.668915 112.882133,276.947601 
	C113.168404,277.136230 113.454666,277.324890 113.627769,278.024902 
	C111.917145,278.800323 110.278397,278.925629 108.738602,279.383575 
	C107.893944,279.634766 107.216179,280.447113 106.463150,281.006409 
z"/>
<path fill="#6B7178" opacity="1.000000" stroke="none" 
	d="
M406.335510,259.194092 
	C407.147949,260.588623 407.870270,262.152832 407.919128,263.737823 
	C408.073669,268.748535 407.976166,273.767059 407.976166,279.416962 
	C405.284332,276.897919 404.691193,268.346588 406.335510,259.194092 
z"/>
<path fill="#767C82" opacity="1.000000" stroke="none" 
	d="
M358.046051,266.022858 
	C363.216614,262.768127 366.770569,264.444916 367.027344,270.337219 
	C367.151581,273.188232 367.048798,276.049194 367.048798,278.905640 
	C366.324951,278.926514 365.601074,278.947388 364.877228,278.968292 
	C364.766022,276.439423 364.618591,273.911530 364.552826,271.381500 
	C364.472473,268.290588 363.615356,266.060059 359.301178,266.641602 
	C358.570465,266.275696 358.332764,266.113403 358.046051,266.022858 
z"/>
<path fill="#6B7178" opacity="1.000000" stroke="none" 
	d="
M357.683411,265.917786 
	C358.332764,266.113403 358.570465,266.275696 358.859558,266.703674 
	C358.008026,270.861023 357.056122,274.824463 356.104218,278.787872 
	C355.803558,278.799286 355.502930,278.810669 355.202271,278.822052 
	C355.202271,274.301208 355.202271,269.780396 355.202271,265.259552 
	C355.908447,265.443939 356.614624,265.628326 357.683411,265.917786 
z"/>
<path fill="#6B7178" opacity="1.000000" stroke="none" 
	d="
M215.141846,261.309448 
	C215.151291,267.459686 215.151291,273.140442 215.151291,278.821167 
	C214.622650,278.808899 214.094009,278.796600 213.565369,278.784332 
	C213.565369,272.280212 213.565369,265.776062 213.565369,258.462708 
	C214.312088,259.595551 214.722229,260.217743 215.141846,261.309448 
z"/>
<path fill="#6B7178" opacity="1.000000" stroke="none" 
	d="
M120.988541,267.058777 
	C120.988541,264.087250 120.988541,261.597168 120.988541,259.107086 
	C121.533653,259.128510 122.078758,259.149902 122.623871,259.171295 
	C122.623871,265.701508 122.623871,272.231750 122.623871,278.761963 
	C122.078758,278.778687 121.533653,278.795441 120.988541,278.812164 
	C120.988541,275.054840 120.988541,271.297516 120.988541,267.058777 
z"/>
<path fill="#6B7178" opacity="1.000000" stroke="none" 
	d="
M267.655212,265.180908 
	C271.289917,269.589081 267.948517,274.217957 269.059937,278.784851 
	C268.455017,278.812653 267.850128,278.840485 267.245209,278.868317 
	C267.245209,274.348907 267.245209,269.829529 267.655212,265.180908 
z"/>
<path fill="#F7F7F8" opacity="1.000000" stroke="none" 
	d="
M437.458130,268.723724 
	C437.852295,269.715302 438.326294,270.493744 438.115082,270.964996 
	C437.192047,273.024353 436.457733,275.481140 434.839569,276.770050 
	C434.142303,277.325470 430.333008,275.750092 429.946136,274.514008 
	C429.324036,272.526245 429.657898,269.362610 430.954620,267.954102 
	C431.844116,266.987854 435.051392,268.155457 437.458130,268.723724 
z"/>
<path fill="#F7F7F8" opacity="1.000000" stroke="none" 
	d="
M151.099396,270.867401 
	C151.099426,267.440063 151.099426,264.480438 151.099426,261.376068 
	C155.242798,260.659943 159.309616,260.368988 161.199661,264.061127 
	C162.450577,266.504730 162.667343,270.313446 161.685959,272.874481 
	C160.086899,277.047363 155.830841,277.097260 151.099380,276.592834 
	C151.099380,274.833252 151.099380,273.084167 151.099396,270.867401 
z"/>
<path fill="#F7F7F8" opacity="1.000000" stroke="none" 
	d="
M243.337372,276.659973 
	C239.239151,277.767487 236.957260,276.167328 236.854416,272.476379 
	C236.806061,270.741119 237.770309,268.528625 239.039032,267.363892 
	C239.882645,266.589417 242.800980,266.653839 243.507599,267.463104 
	C244.767639,268.906219 245.396240,271.160461 245.611389,273.148834 
	C245.722504,274.175629 244.378021,275.359924 243.337372,276.659973 
z"/>
<path fill="#F1F2F2" opacity="1.000000" stroke="none" 
	d="
M258.819763,270.093628 
	C256.964752,270.025238 255.538605,269.950104 253.682495,269.852295 
	C255.142883,266.092651 257.271027,265.484894 260.134888,267.417206 
	C260.344482,267.558594 259.567108,269.162781 258.819763,270.093628 
z"/>
<path fill="#F1F2F2" opacity="1.000000" stroke="none" 
	d="
M206.187256,270.070618 
	C203.903915,270.100311 202.014130,270.100311 200.124329,270.100311 
	C199.963333,269.502991 199.802338,268.905670 199.641342,268.308350 
	C201.336136,267.707031 203.015579,266.773346 204.734497,266.693878 
	C205.297180,266.667908 205.962448,268.862061 206.187256,270.070618 
z"/>
<path fill="#F1F2F2" opacity="1.000000" stroke="none" 
	d="
M344.259094,270.102600 
	C343.054626,270.027710 342.260651,269.953461 341.389618,269.871979 
	C343.806702,265.249847 346.011810,265.140869 349.057312,269.746979 
	C347.442322,269.878113 346.055969,269.990692 344.259094,270.102600 
z"/>
<path fill="#F1F2F2" opacity="1.000000" stroke="none" 
	d="
M171.668655,270.063599 
	C171.907654,268.862915 172.572906,266.691650 173.176407,266.708679 
	C174.891052,266.757080 176.580460,267.698822 178.279800,268.288849 
	C178.116211,268.889984 177.952621,269.491089 177.789032,270.092224 
	C175.881592,270.092224 173.974167,270.092224 171.668655,270.063599 
z"/>
<path fill="#F1F2F2" opacity="1.000000" stroke="none" 
	d="
M333.362671,269.824768 
	C332.594574,272.419250 332.044403,274.967651 330.566803,276.745056 
	C330.077606,277.333466 326.254181,276.455505 325.634216,275.326263 
	C324.684784,273.596771 324.471832,270.770721 325.229736,268.942047 
	C326.753296,265.265839 330.079956,265.632385 333.362671,269.824768 
z"/>
<path fill="#F1F2F2" opacity="1.000000" stroke="none" 
	d="
M132.868988,266.318176 
	C134.468201,267.147614 135.697800,267.959717 136.927383,268.771790 
	C136.808380,269.087494 136.689362,269.403229 136.570358,269.718933 
	C134.142502,269.718933 131.714645,269.718933 127.634987,269.718933 
	C129.995102,268.060516 131.247223,267.180664 132.868988,266.318176 
z"/>
<path fill="#F7F7F8" opacity="1.000000" stroke="none" 
	d="
M78.963562,277.143677 
	C77.318398,276.453003 75.117516,275.835938 75.034843,275.007477 
	C74.796448,272.618622 74.931892,269.915405 75.932198,267.818207 
	C76.325180,266.994263 80.619789,266.749634 81.028214,267.457794 
	C82.200958,269.491119 82.637970,272.147095 82.631172,274.556244 
	C82.628754,275.414124 80.521683,276.266083 78.963562,277.143677 
z"/>
<path fill="#F7F7F8" opacity="1.000000" stroke="none" 
	d="
M94.895912,277.172485 
	C93.857574,277.018280 92.789261,277.017883 92.652054,276.660248 
	C91.773956,274.371460 90.382225,271.921173 90.639412,269.695007 
	C90.784660,268.437714 93.904510,266.486847 95.407822,266.710236 
	C96.966148,266.941772 98.939072,269.225952 99.394966,270.962921 
	C100.191139,273.996368 98.723816,276.450958 94.895912,277.172485 
z"/>
<path fill="#F7F7F8" opacity="1.000000" stroke="none" 
	d="
M224.985779,277.175598 
	C223.677734,276.813202 222.146301,276.630493 221.979446,276.053284 
	C221.338821,273.837067 220.496399,271.336182 221.010422,269.258453 
	C221.316406,268.021698 224.313858,266.349884 225.558441,266.716492 
	C227.228302,267.208374 229.148071,269.292999 229.571945,271.032227 
	C230.306473,274.046295 228.920776,276.577637 224.985779,277.175598 
z"/>
<path fill="#F7F7F8" opacity="1.000000" stroke="none" 
	d="
M113.113121,276.654541 
	C109.473511,277.668915 106.814018,276.782074 106.227821,273.045105 
	C105.672134,269.502655 107.029762,266.896301 111.294044,266.258484 
	C115.927986,269.684235 116.267334,271.692383 113.113121,276.654541 
z"/>
<path fill="#FFFFFF" opacity="1.000000" stroke="none" 
	d="
M106.769569,281.265259 
	C107.216179,280.447113 107.893944,279.634766 108.738602,279.383575 
	C110.278397,278.925629 111.917145,278.800323 113.753433,278.252380 
	C113.862755,279.414856 113.733246,280.861267 113.603729,282.307678 
	C111.427818,282.046478 109.251900,281.785309 106.769569,281.265259 
z"/>
</svg>